<?xml version="1.0" encoding="UTF-8" standalone="no"?>
<svg width="16px" height="15px" viewBox="0 0 16 15" version="1.1" xmlns="http://www.w3.org/2000/svg" xmlns:xlink="http://www.w3.org/1999/xlink" xmlns:sketch="http://www.bohemiancoding.com/sketch/ns">
    <!-- Generator: Sketch 3.4.3 (16618) - http://www.bohemiancoding.com/sketch -->
    <title>course</title>
    <desc>Created with Sketch.</desc>
    <defs></defs>
    <g id="Page-1" stroke="none" stroke-width="1" fill="none" fill-rule="evenodd" sketch:type="MSPage">
        <g id="course" sketch:type="MSLayerGroup" fill="#666666">
            <path d="M15.7336471,3.44571429 C15.5996471,3.26464286 15.4110588,3.12571429 15.1678824,3.02869048 C15.1808235,3.25511905 15.1649412,3.43940476 15.1201176,3.58178571 L12.2447059,13.1547619 C12.1934118,13.3228571 12.0815294,13.4570238 11.9091765,13.5572619 C11.7365882,13.6575 11.5577647,13.707619 11.3724706,13.707619 L2.52552941,13.707619 C1.75870588,13.707619 1.29870588,13.4815476 1.14529412,13.0286905 C1.08141176,12.8540476 1.08458824,12.715119 1.15494118,12.6116667 C1.22517647,12.5145238 1.34658824,12.4660714 1.51917647,12.4660714 L9.84858824,12.4660714 C10.4428235,12.4660714 10.8534118,12.3544048 11.0802353,12.1313095 C11.3072941,11.9082143 11.5356471,11.4119048 11.7656471,10.6425 L14.3918824,1.855 C14.5323529,1.37654762 14.4749412,0.956190476 14.2192941,0.594166667 C13.9636471,0.232142857 13.5994118,0.0510714286 13.1265882,0.0510714286 L5.83247059,0.0510714286 C5.74941176,0.0510714286 5.58647059,0.0801190476 5.34364706,0.138333333 L5.35317647,0.109166667 C5.17423529,0.0704761905 5.02247059,0.0527380952 4.89788235,0.0558333333 C4.77329412,0.0591666667 4.65823529,0.0963095238 4.55282353,0.1675 C4.44741176,0.238690476 4.36270588,0.31452381 4.29882353,0.395357143 C4.23494118,0.476190476 4.17258824,0.579642857 4.11188235,0.705714286 C4.05129412,0.831904762 4.00011765,0.948333333 3.95858824,1.055 C3.91705882,1.16166667 3.86905882,1.27488095 3.81482353,1.39464286 C3.76047059,1.51428571 3.70788235,1.61285714 3.65670588,1.69035714 C3.61835294,1.74214286 3.56411765,1.81 3.49376471,1.89404762 C3.42352941,1.97809524 3.366,2.0525 3.32129412,2.11714286 C3.27658824,2.18178571 3.24776471,2.24 3.23505882,2.29178571 C3.22235294,2.34988095 3.22870588,2.43559524 3.25423529,2.54880952 C3.27976471,2.66190476 3.28941176,2.74428571 3.28294118,2.79607143 C3.25741176,3.04178571 3.16952941,3.35369048 3.01941176,3.73202381 C2.86929412,4.11035714 2.73341176,4.38357143 2.612,4.55166667 C2.58647059,4.58392857 2.51623529,4.65666667 2.40117647,4.76988095 C2.28611765,4.88297619 2.21588235,4.98154762 2.19035294,5.06559524 C2.16482353,5.09785714 2.16317647,5.18845238 2.18552941,5.33714286 C2.20788235,5.48595238 2.216,5.58928571 2.20952941,5.6475 C2.18388235,5.86738095 2.10411765,6.15833333 1.96988235,6.52047619 C1.83564706,6.8825 1.70152941,7.18 1.56729412,7.4127381 C1.54811765,7.45154762 1.49388235,7.52583333 1.40435294,7.63583333 C1.31494118,7.74583333 1.26058824,7.83630952 1.24141176,7.90738095 C1.22870588,7.95904762 1.23035294,8.04964286 1.24623529,8.17892857 C1.26211765,8.30821429 1.26058824,8.40511905 1.24141176,8.4697619 C1.19035294,8.71535714 1.09447059,9.01130952 0.953882353,9.3572619 C0.813294118,9.70309524 0.669529412,9.99916667 0.522470588,10.2446429 C0.484235294,10.3094048 0.431411765,10.3854762 0.364352941,10.472619 C0.297294118,10.559881 0.244588235,10.6358333 0.206235294,10.7004762 C0.167882353,10.7652381 0.142352941,10.8330952 0.129529412,10.9041667 C0.123176471,10.9429762 0.132823529,11.0060714 0.158352941,11.0934524 C0.183882353,11.1805952 0.193529412,11.250119 0.187058824,11.3020238 C0.180588235,11.3925 0.167882353,11.5122619 0.148705882,11.6609524 C0.129529412,11.8096429 0.119882353,11.8967857 0.119882353,11.922619 C-0.0207058824,12.3107143 -0.0143529412,12.7213095 0.139058824,13.1546429 C0.318,13.6588095 0.635882353,14.0841667 1.09270588,14.430119 C1.54964706,14.7759524 2.024,14.9488095 2.51611765,14.9488095 L11.3631765,14.9488095 C11.7783529,14.9488095 12.1697647,14.8080952 12.5371765,14.5270238 C12.9045882,14.2457143 13.1490588,13.8982143 13.2703529,13.4841667 L15.9061176,4.69690476 C16.0468235,4.23130952 15.9894118,3.81428571 15.7336471,3.44571429 L15.7336471,3.44571429 Z M5.53529412,3.46511905 L5.73658824,2.84428571 C5.76211765,2.7602381 5.81482353,2.6875 5.89470588,2.62607143 C5.97458824,2.5647619 6.05611765,2.53392857 6.13917647,2.53392857 L11.9669412,2.53392857 C12.0563529,2.53392857 12.1202353,2.56464286 12.1585882,2.62607143 C12.1969412,2.6875 12.2034118,2.7602381 12.1778824,2.84428571 L11.9764706,3.46511905 C11.9508235,3.54916667 11.8982353,3.62178571 11.8182353,3.68333333 C11.7382353,3.74464286 11.6569412,3.77535714 11.5738824,3.77535714 L5.74623529,3.77535714 C5.65670588,3.77535714 5.59282353,3.7447619 5.55447059,3.68333333 C5.51611765,3.62178571 5.50976471,3.54916667 5.53529412,3.46511905 L5.53529412,3.46511905 Z M4.73976471,5.94809524 L4.94105882,5.32738095 C4.96658824,5.24333333 5.01929412,5.17059524 5.09917647,5.10916667 C5.17905882,5.0477381 5.26047059,5.01702381 5.34364706,5.01702381 L11.1712941,5.01702381 C11.2608235,5.01702381 11.3247059,5.04761905 11.3630588,5.10916667 C11.4012941,5.17059524 11.4077647,5.24333333 11.3821176,5.32738095 L11.1808235,5.94809524 C11.1552941,6.03214286 11.1025882,6.10488095 11.0227059,6.16630952 C10.9427059,6.2277381 10.8614118,6.25845238 10.7782353,6.25845238 L4.95058824,6.25845238 C4.86117647,6.25845238 4.79729412,6.22785714 4.75894118,6.16630952 C4.72058824,6.10488095 4.71423529,6.03214286 4.73976471,5.94809524 L4.73976471,5.94809524 Z" id="Shape" sketch:type="MSShapeGroup"></path>
        </g>
    </g>
</svg>